<mxfile host="app.diagrams.net" modified="2022-10-25T09:30:34.070Z" agent="5.0 (Windows NT 10.0; Win64; x64) AppleWebKit/537.36 (KHTML, like Gecko) Chrome/106.0.0.0 Safari/537.36" etag="wCTp1D1g6hxr3G6kpcb_" version="20.2.3" type="github">
  <diagram id="sNFe8rpMnxioV6bxYVCk" name="第 1 页">
    <mxGraphModel dx="1543" dy="863" grid="1" gridSize="10" guides="1" tooltips="1" connect="1" arrows="1" fold="1" page="1" pageScale="1" pageWidth="827" pageHeight="1169" math="0" shadow="0">
      <root>
        <mxCell id="0" />
        <mxCell id="1" parent="0" />
        <mxCell id="tsmTd1OxDmNWAYkGPlin-3" value="" style="edgeStyle=orthogonalEdgeStyle;rounded=0;orthogonalLoop=1;jettySize=auto;html=1;" edge="1" parent="1" target="tsmTd1OxDmNWAYkGPlin-2">
          <mxGeometry relative="1" as="geometry">
            <mxPoint x="430" y="280" as="sourcePoint" />
          </mxGeometry>
        </mxCell>
        <mxCell id="tsmTd1OxDmNWAYkGPlin-21" value="&lt;h1 style=&quot;margin: 0px; padding: 0px; font-variant-numeric: normal; font-variant-east-asian: normal; font-stretch: normal; font-size: 16px; line-height: 26px; font-family: &amp;quot;PingFang SC&amp;quot;, &amp;quot;Lantinghei SC&amp;quot;, &amp;quot;Microsoft YaHei&amp;quot;, arial, 宋体, sans-serif, tahoma; word-break: break-all; position: relative; color: rgb(51, 51, 51); text-align: start;&quot;&gt;&lt;span style=&quot;display: inline; font-size: 24px; line-height: 34px; font-weight: 400; overflow: hidden; vertical-align: middle;&quot; class=&quot;ask-title&quot;&gt;①&lt;/span&gt;&lt;/h1&gt;" style="edgeLabel;html=1;align=center;verticalAlign=middle;resizable=0;points=[];" vertex="1" connectable="0" parent="tsmTd1OxDmNWAYkGPlin-3">
          <mxGeometry x="0.0377" relative="1" as="geometry">
            <mxPoint y="-2" as="offset" />
          </mxGeometry>
        </mxCell>
        <mxCell id="tsmTd1OxDmNWAYkGPlin-6" value="" style="edgeStyle=orthogonalEdgeStyle;rounded=0;orthogonalLoop=1;jettySize=auto;html=1;exitX=0.5;exitY=1.02;exitDx=0;exitDy=0;exitPerimeter=0;" edge="1" parent="1" source="tsmTd1OxDmNWAYkGPlin-29" target="tsmTd1OxDmNWAYkGPlin-5">
          <mxGeometry relative="1" as="geometry">
            <mxPoint x="423.0000000000002" y="250" as="sourcePoint" />
          </mxGeometry>
        </mxCell>
        <mxCell id="tsmTd1OxDmNWAYkGPlin-22" value="&lt;h1 style=&quot;margin: 0px; padding: 0px; font-variant-numeric: normal; font-variant-east-asian: normal; font-stretch: normal; font-size: 16px; line-height: 26px; font-family: &amp;quot;PingFang SC&amp;quot;, &amp;quot;Lantinghei SC&amp;quot;, &amp;quot;Microsoft YaHei&amp;quot;, arial, 宋体, sans-serif, tahoma; word-break: break-all; position: relative; color: rgb(51, 51, 51); text-align: start;&quot;&gt;&lt;span style=&quot;display: inline; font-size: 24px; line-height: 34px; font-weight: 400; overflow: hidden; vertical-align: middle;&quot; class=&quot;ask-title&quot;&gt;②&lt;/span&gt;&lt;/h1&gt;" style="edgeLabel;html=1;align=center;verticalAlign=middle;resizable=0;points=[];" vertex="1" connectable="0" parent="tsmTd1OxDmNWAYkGPlin-6">
          <mxGeometry x="0.2433" relative="1" as="geometry">
            <mxPoint y="-20" as="offset" />
          </mxGeometry>
        </mxCell>
        <mxCell id="tsmTd1OxDmNWAYkGPlin-8" value="" style="edgeStyle=orthogonalEdgeStyle;rounded=0;orthogonalLoop=1;jettySize=auto;html=1;" edge="1" parent="1">
          <mxGeometry relative="1" as="geometry">
            <mxPoint x="440" y="280" as="sourcePoint" />
            <mxPoint x="670" y="330" as="targetPoint" />
          </mxGeometry>
        </mxCell>
        <mxCell id="tsmTd1OxDmNWAYkGPlin-23" value="&lt;h1 style=&quot;margin: 0px; padding: 0px; font-variant-numeric: normal; font-variant-east-asian: normal; font-stretch: normal; font-size: 16px; line-height: 26px; font-family: &amp;quot;PingFang SC&amp;quot;, &amp;quot;Lantinghei SC&amp;quot;, &amp;quot;Microsoft YaHei&amp;quot;, arial, 宋体, sans-serif, tahoma; word-break: break-all; position: relative; color: rgb(51, 51, 51); text-align: start;&quot;&gt;&lt;span style=&quot;display: inline; font-size: 24px; line-height: 34px; font-weight: 400; overflow: hidden; vertical-align: middle;&quot; class=&quot;ask-title&quot;&gt;③&lt;/span&gt;&lt;/h1&gt;" style="edgeLabel;html=1;align=center;verticalAlign=middle;resizable=0;points=[];" vertex="1" connectable="0" parent="tsmTd1OxDmNWAYkGPlin-8">
          <mxGeometry x="0.7844" relative="1" as="geometry">
            <mxPoint x="-120" y="-21" as="offset" />
          </mxGeometry>
        </mxCell>
        <mxCell id="tsmTd1OxDmNWAYkGPlin-11" value="" style="edgeStyle=orthogonalEdgeStyle;rounded=0;orthogonalLoop=1;jettySize=auto;html=1;" edge="1" parent="1" target="tsmTd1OxDmNWAYkGPlin-10">
          <mxGeometry relative="1" as="geometry">
            <mxPoint x="170" y="430" as="sourcePoint" />
          </mxGeometry>
        </mxCell>
        <mxCell id="tsmTd1OxDmNWAYkGPlin-12" style="edgeStyle=orthogonalEdgeStyle;rounded=0;orthogonalLoop=1;jettySize=auto;html=1;" edge="1" parent="1">
          <mxGeometry relative="1" as="geometry">
            <mxPoint x="172.5" y="470" as="targetPoint" />
            <mxPoint x="172.5" y="390" as="sourcePoint" />
          </mxGeometry>
        </mxCell>
        <mxCell id="tsmTd1OxDmNWAYkGPlin-14" style="edgeStyle=orthogonalEdgeStyle;rounded=0;orthogonalLoop=1;jettySize=auto;html=1;entryX=0.5;entryY=0;entryDx=0;entryDy=0;" edge="1" parent="1" target="tsmTd1OxDmNWAYkGPlin-15">
          <mxGeometry relative="1" as="geometry">
            <mxPoint x="292" y="470" as="targetPoint" />
            <mxPoint x="170" y="430" as="sourcePoint" />
          </mxGeometry>
        </mxCell>
        <mxCell id="tsmTd1OxDmNWAYkGPlin-2" value="profile" style="rounded=0;whiteSpace=wrap;html=1;" vertex="1" parent="1">
          <mxGeometry x="113" y="330" width="120" height="60" as="geometry" />
        </mxCell>
        <mxCell id="tsmTd1OxDmNWAYkGPlin-20" value="" style="edgeStyle=orthogonalEdgeStyle;rounded=0;orthogonalLoop=1;jettySize=auto;html=1;" edge="1" parent="1" source="tsmTd1OxDmNWAYkGPlin-5" target="tsmTd1OxDmNWAYkGPlin-19">
          <mxGeometry relative="1" as="geometry" />
        </mxCell>
        <mxCell id="tsmTd1OxDmNWAYkGPlin-5" value="predictor" style="rounded=0;whiteSpace=wrap;html=1;" vertex="1" parent="1">
          <mxGeometry x="363" y="330" width="120" height="60" as="geometry" />
        </mxCell>
        <mxCell id="tsmTd1OxDmNWAYkGPlin-7" value="policy" style="rounded=0;whiteSpace=wrap;html=1;" vertex="1" parent="1">
          <mxGeometry x="610" y="330" width="120" height="60" as="geometry" />
        </mxCell>
        <mxCell id="tsmTd1OxDmNWAYkGPlin-10" value="画像平台" style="rounded=0;whiteSpace=wrap;html=1;" vertex="1" parent="1">
          <mxGeometry x="20" y="470" width="90" height="60" as="geometry" />
        </mxCell>
        <mxCell id="tsmTd1OxDmNWAYkGPlin-13" value="unionplus" style="rounded=0;whiteSpace=wrap;html=1;" vertex="1" parent="1">
          <mxGeometry x="128" y="470" width="82" height="60" as="geometry" />
        </mxCell>
        <mxCell id="tsmTd1OxDmNWAYkGPlin-15" value="redis" style="rounded=0;whiteSpace=wrap;html=1;" vertex="1" parent="1">
          <mxGeometry x="233" y="470" width="80" height="60" as="geometry" />
        </mxCell>
        <mxCell id="tsmTd1OxDmNWAYkGPlin-24" style="edgeStyle=orthogonalEdgeStyle;rounded=0;orthogonalLoop=1;jettySize=auto;html=1;entryX=0.5;entryY=0;entryDx=0;entryDy=0;exitX=0.5;exitY=1;exitDx=0;exitDy=0;" edge="1" parent="1" source="tsmTd1OxDmNWAYkGPlin-16">
          <mxGeometry relative="1" as="geometry">
            <mxPoint x="423.0000000000002" y="169" as="targetPoint" />
          </mxGeometry>
        </mxCell>
        <mxCell id="tsmTd1OxDmNWAYkGPlin-16" value="金币后台" style="rounded=0;whiteSpace=wrap;html=1;" vertex="1" parent="1">
          <mxGeometry x="213" y="49" width="120" height="60" as="geometry" />
        </mxCell>
        <mxCell id="tsmTd1OxDmNWAYkGPlin-25" style="edgeStyle=orthogonalEdgeStyle;rounded=0;orthogonalLoop=1;jettySize=auto;html=1;entryX=0.5;entryY=0;entryDx=0;entryDy=0;" edge="1" parent="1" source="tsmTd1OxDmNWAYkGPlin-17">
          <mxGeometry relative="1" as="geometry">
            <mxPoint x="423.0000000000002" y="169" as="targetPoint" />
          </mxGeometry>
        </mxCell>
        <mxCell id="tsmTd1OxDmNWAYkGPlin-17" value="ssp" style="rounded=0;whiteSpace=wrap;html=1;" vertex="1" parent="1">
          <mxGeometry x="363" y="49" width="120" height="60" as="geometry" />
        </mxCell>
        <mxCell id="tsmTd1OxDmNWAYkGPlin-26" style="edgeStyle=orthogonalEdgeStyle;rounded=0;orthogonalLoop=1;jettySize=auto;html=1;entryX=0.5;entryY=0;entryDx=0;entryDy=0;exitX=0.5;exitY=1;exitDx=0;exitDy=0;" edge="1" parent="1" source="tsmTd1OxDmNWAYkGPlin-18">
          <mxGeometry relative="1" as="geometry">
            <mxPoint x="423.0000000000002" y="169" as="targetPoint" />
          </mxGeometry>
        </mxCell>
        <mxCell id="tsmTd1OxDmNWAYkGPlin-18" value="短视频推荐" style="rounded=0;whiteSpace=wrap;html=1;" vertex="1" parent="1">
          <mxGeometry x="520" y="49" width="120" height="60" as="geometry" />
        </mxCell>
        <mxCell id="tsmTd1OxDmNWAYkGPlin-19" value="venus" style="whiteSpace=wrap;html=1;rounded=0;" vertex="1" parent="1">
          <mxGeometry x="363" y="470" width="120" height="60" as="geometry" />
        </mxCell>
        <mxCell id="tsmTd1OxDmNWAYkGPlin-29" value="" style="sketch=0;pointerEvents=1;shadow=0;dashed=0;html=1;strokeColor=none;fillColor=#505050;labelPosition=center;verticalLabelPosition=bottom;verticalAlign=top;outlineConnect=0;align=center;shape=mxgraph.office.communications.exchange_active_sync;fillColor=#2072B8;" vertex="1" parent="1">
          <mxGeometry x="398.5" y="190" width="49" height="49" as="geometry" />
        </mxCell>
        <mxCell id="tsmTd1OxDmNWAYkGPlin-30" value="engine" style="text;html=1;align=center;verticalAlign=middle;resizable=0;points=[];autosize=1;strokeColor=none;fillColor=none;" vertex="1" parent="1">
          <mxGeometry x="393" y="160" width="60" height="30" as="geometry" />
        </mxCell>
      </root>
    </mxGraphModel>
  </diagram>
</mxfile>
